<?xml version="1.0" encoding="UTF-8" standalone="no"?>
<!-- Created with Inkscape (http://www.inkscape.org/) -->

<svg
   width="69.099991mm"
   height="24.099998mm"
   viewBox="0 0 69.099991 24.099998"
   version="1.1"
   id="svg1"
   inkscape:version="1.4.2 (f4327f4, 2025-05-13)"
   sodipodi:docname="options.svg"
   inkscape:export-filename="..\textures\options.png"
   inkscape:export-xdpi="58.813324"
   inkscape:export-ydpi="58.813324"
   xmlns:inkscape="http://www.inkscape.org/namespaces/inkscape"
   xmlns:sodipodi="http://sodipodi.sourceforge.net/DTD/sodipodi-0.dtd"
   xmlns="http://www.w3.org/2000/svg"
   xmlns:svg="http://www.w3.org/2000/svg">
  <sodipodi:namedview
     id="namedview1"
     pagecolor="#e3e3e3"
     bordercolor="#000000"
     borderopacity="0.25"
     inkscape:showpageshadow="2"
     inkscape:pageopacity="0.0"
     inkscape:pagecheckerboard="0"
     inkscape:deskcolor="#dcd1d1"
     inkscape:document-units="mm"
     inkscape:zoom="1.9327138"
     inkscape:cx="134.26716"
     inkscape:cy="-13.193883"
     inkscape:window-width="1366"
     inkscape:window-height="697"
     inkscape:window-x="-8"
     inkscape:window-y="-8"
     inkscape:window-maximized="1"
     inkscape:current-layer="layer1" />
  <defs
     id="defs1">
    <rect
       x="40.875167"
       y="17.074437"
       width="56.914789"
       height="55.362568"
       id="rect10" />
    <inkscape:path-effect
       effect="fillet_chamfer"
       id="path-effect6"
       is_visible="true"
       lpeversion="1"
       nodesatellites_param="F,0,0,1,0,0,0,1 @ F,0,0,1,0,0,0,1 @ F,0,0,1,0,0,0,1 @ F,0,0,1,0,0,0,1"
       radius="0"
       unit="px"
       method="auto"
       mode="F"
       chamfer_steps="1"
       flexible="false"
       use_knot_distance="true"
       apply_no_radius="true"
       apply_with_radius="true"
       only_selected="false"
       hide_knots="false" />
  </defs>
  <g
     inkscape:groupmode="layer"
     id="layer4"
     inkscape:label="Layer 2" />
  <g
     inkscape:label="Layer 1"
     inkscape:groupmode="layer"
     id="layer1"
     transform="translate(-55.900002,-86.199997)">
    <text
       xml:space="preserve"
       style="font-size:11.2889px;font-family:Carlito;-inkscape-font-specification:Carlito;text-align:start;writing-mode:lr-tb;direction:ltr;text-anchor:start;fill:#ffe6e6;fill-opacity:1;stroke:none;stroke-width:1;stroke-dasharray:none;stroke-opacity:1"
       x="69.599998"
       y="95.699997"
       id="text1"><tspan
         sodipodi:role="line"
         id="tspan1"
         style="fill:#ffe6e6;fill-opacity:1;stroke:none;stroke-width:1"
         x="69.599998"
         y="95.699997" /></text>
    <text
       xml:space="preserve"
       style="font-size:8.46667px;font-family:Carlito;-inkscape-font-specification:Carlito;text-align:start;writing-mode:lr-tb;direction:ltr;text-anchor:start;fill:#000000;fill-opacity:1;stroke:none;stroke-width:0.01;stroke-dasharray:none;stroke-opacity:1"
       x="87.577042"
       y="100.43214"
       id="text2"><tspan
         sodipodi:role="line"
         style="font-style:normal;font-variant:normal;font-weight:normal;font-stretch:normal;font-size:8.46667px;font-family:'Libre Baskerville';-inkscape-font-specification:'Libre Baskerville';fill:#000000;fill-opacity:1;stroke:none;stroke-width:0.01;stroke-dasharray:none;stroke-opacity:1"
         x="87.577042"
         y="100.43214"
         id="tspan3">Options</tspan></text>
    <ellipse
       style="fill:none;fill-opacity:1;stroke:#000000;stroke-width:1.01272;stroke-opacity:1"
       id="path3"
       cx="46.308338"
       cy="-112.5529"
       transform="matrix(-0.49597299,0.86833795,-0.86368156,-0.50403785,0,0)"
       rx="1.9299849"
       ry="1.9196359" />
    <path
       id="path4"
       style="fill:none;fill-opacity:1;stroke:#000000;stroke-width:1.0127;stroke-opacity:1"
       d="m 73.005738,90.060083 v 2.69801 a 4.3197639,4.3664665 0 0 0 -1.726352,1.005848 L 68.973883,92.41774 67.732397,94.592806 70.0379,95.938207 A 4.3197639,4.3664665 0 0 0 70.034,97.93469 l -2.3364,1.36381 1.253369,2.19589 2.338777,-1.3654 a 4.3197639,4.3664665 0 0 0 0.792268,0.5942 4.3197639,4.3664665 0 0 0 0.929332,0.40522 l -7.92e-4,2.6876 2.463162,7.9e-4 7.94e-4,-2.68918 a 4.3197639,4.3664665 0 0 0 1.737448,-1.01467 l 2.284903,1.33339 1.231974,-2.155836 -2.284898,-1.333395 a 4.3197639,4.3664665 0 0 0 0.0032,-2.016499 l 2.299961,-1.342199 -1.243866,-2.178268 -2.299955,1.342197 a 4.3197639,4.3664665 0 0 0 -0.800985,-0.601427 4.3197639,4.3664665 0 0 0 -0.923785,-0.402019 v -2.698811 z" />
    <text
       xml:space="preserve"
       transform="matrix(0.26458333,0,0,0.26458333,55.900002,86.199997)"
       id="text10"
       style="font-size:53.3333px;text-align:start;writing-mode:lr-tb;direction:ltr;white-space:pre;shape-inside:url(#rect10);display:inline;fill:none;fill-opacity:1;stroke:#ffffff;stroke-width:2.48315;stroke-opacity:1" />
  </g>
</svg>
